<?xml version="1.0" encoding="UTF-8" standalone="no" ?>
<!DOCTYPE svg PUBLIC "-//W3C//DTD SVG 1.1//EN" "http://www.w3.org/Graphics/SVG/1.1/DTD/svg11.dtd">
<svg xmlns="http://www.w3.org/2000/svg" xmlns:xlink="http://www.w3.org/1999/xlink" version="1.1" width="1080" height="1080" viewBox="0 0 1080 1080" xml:space="preserve">
<desc>Created with Fabric.js 5.2.4</desc>
<defs>
</defs>
<g transform="matrix(1 0 0 1 540 540)" id="187d1ee1-a165-447b-a2c5-ba034609e85e"  >
<rect style="stroke: none; stroke-width: 1; stroke-dasharray: none; stroke-linecap: butt; stroke-dashoffset: 0; stroke-linejoin: miter; stroke-miterlimit: 4; fill: rgb(255,255,255); fill-rule: nonzero; opacity: 1; visibility: hidden;" vector-effect="non-scaling-stroke"  x="-540" y="-540" rx="0" ry="0" width="1080" height="1080" />
</g>
<g transform="matrix(1 0 0 1 540 540)" id="016aa04b-819a-4b24-b42d-a79ca7ff53bc"  >
</g>
<g transform="matrix(4.39 0 0 4.39 540 540)" id="Calque_1-2"  >
<path style="stroke: none; stroke-width: 0; stroke-dasharray: none; stroke-linecap: butt; stroke-dashoffset: 0; stroke-linejoin: miter; stroke-miterlimit: 4; fill: rgb(255,255,255); fill-rule: nonzero; opacity: 1;"  transform=" translate(-122.95, -118.95)" d="M 122.9 0 C 55 0 0 53.2 0 118.9 C 0 143.5 7.7 166.4 21 185.4 L 9.6 228 L 52.7 216.5 C 72.6 230 96.80000000000001 237.9 123 237.9 C 190.9 237.9 245.9 184.7 245.9 119 C 245.8 53.2 190.8 0 122.9 0 Z M 124.2 175.6 C 91.7 175.6 65.4 150.1 65.4 118.69999999999999 C 65.4 87.29999999999998 91.7 61.79999999999999 124.2 61.79999999999999 C 156.7 61.79999999999999 183 87.29999999999998 183 118.69999999999999 C 183.1 150.1 156.7 175.6 124.2 175.6 Z" stroke-linecap="round" />
</g>
</svg>